<!-- Generated by IcoMoon.io -->
<svg version="1.1" xmlns="http://www.w3.org/2000/svg" width="188" height="32" viewBox="0 0 188 32">
<title>logo</title>
<path fill="none" stroke="#020203" stroke-linejoin="miter" stroke-linecap="butt" stroke-miterlimit="10" stroke-width="2.2326" d="M186.718 1.488h-92.615v28.943h92.615v-28.943z"></path>
<path fill="#020203" stroke="#020203" stroke-linejoin="miter" stroke-linecap="butt" stroke-miterlimit="10" stroke-width="2.2326" d="M94.103 1.488h-92.615v28.943h92.615v-28.943z"></path>
<path fill="#fff" d="M13.97 9.624h5.156c0.817 0 1.522 0.142 2.141 0.425s1.099 0.68 1.409 1.162c0.338 0.51 0.507 1.049 0.507 1.673 0 0.652-0.141 1.162-0.394 1.616-0.282 0.425-0.648 0.794-1.155 1.077v0.085c0.648 0.198 1.183 0.595 1.634 1.134s0.648 1.191 0.648 1.984c0 0.737-0.197 1.417-0.564 1.984s-0.902 1.020-1.606 1.332c-0.676 0.312-1.493 0.482-2.423 0.482h-5.353v-12.955zM19.211 14.897c1.24 0 1.86-0.539 1.86-1.644 0-1.077-0.62-1.616-1.86-1.616h-2.93v3.26h2.93zM19.746 20.482c0.62 0 1.099-0.142 1.437-0.454 0.366-0.312 0.535-0.737 0.535-1.304s-0.169-1.020-0.535-1.332c-0.366-0.312-0.845-0.454-1.437-0.454h-3.466v3.544h3.466z"></path>
<path fill="#fff" d="M27.636 9.624h4.452c0.986 0 1.831 0.17 2.564 0.51s1.296 0.822 1.691 1.474c0.395 0.624 0.592 1.361 0.592 2.211 0 0.822-0.197 1.531-0.563 2.126s-0.93 1.106-1.662 1.531v0.085l2.874 4.961h-2.564l-2.592-4.564h-2.508v4.564h-2.282v-12.898zM32.257 15.946c0.733 0 1.324-0.198 1.747-0.567s0.648-0.907 0.648-1.588c0-0.68-0.197-1.191-0.62-1.588-0.423-0.369-1.014-0.567-1.747-0.567h-2.339v4.281h2.31v0.028z"></path>
<path fill="#fff" d="M55.389 9.624h2.508l5.466 9.27v-9.27h2.282v12.898h-2.508l-5.297-8.986-0.169-0.312v9.27h-2.282v-12.87z"></path>
<path fill="#fff" d="M69.984 9.624h4.142c1.381 0 2.592 0.255 3.606 0.794 1.014 0.51 1.803 1.276 2.367 2.24s0.817 2.126 0.817 3.43-0.282 2.466-0.817 3.43c-0.536 0.964-1.325 1.729-2.367 2.24-1.014 0.51-2.226 0.794-3.606 0.794h-4.142v-12.927zM74.042 20.482c1.437 0 2.564-0.369 3.353-1.106s1.212-1.843 1.212-3.317-0.394-2.551-1.212-3.317c-0.789-0.737-1.916-1.106-3.353-1.106h-1.775v8.845h1.775z"></path>
<path fill="#020203" d="M109.881 9.454h2.17l4.734 12.898h-2.396l-0.817-2.353h-5.212l-0.789 2.353h-2.423l4.733-12.898zM112.868 18.015l-1.662-4.876-0.254-0.68-0.225 0.68-1.69 4.876h3.832z"></path>
<path fill="#fff" d="M45.077 9.738h2.17l4.734 12.898h-2.395l-0.817-2.353h-5.213l-0.789 2.353h-2.423l4.734-12.898zM48.063 18.299l-1.662-4.876-0.254-0.68-0.225 0.68-1.691 4.876h3.832z"></path>
<path fill="#020203" d="M122.082 21.701c-0.987-0.567-1.776-1.332-2.367-2.353s-0.874-2.154-0.874-3.459c0-1.304 0.282-2.466 0.874-3.458 0.592-1.021 1.353-1.786 2.367-2.353 0.986-0.539 2.084-0.822 3.268-0.822 1.014 0 1.944 0.17 2.761 0.539s1.465 0.879 2 1.531c0.508 0.652 0.874 1.417 1.043 2.268l-0.085 0.142-2.141 0.17c-0.226-0.822-0.676-1.446-1.296-1.899-0.647-0.454-1.409-0.68-2.338-0.68-0.817 0-1.55 0.198-2.198 0.567-0.62 0.397-1.099 0.936-1.437 1.616s-0.508 1.474-0.508 2.381c0 0.907 0.169 1.673 0.508 2.381 0.338 0.68 0.817 1.247 1.465 1.616 0.62 0.397 1.353 0.567 2.198 0.567 0.901 0 1.662-0.227 2.282-0.68s1.043-1.077 1.296-1.899l2.113 0.17 0.084 0.142c-0.338 1.361-1.014 2.41-2.029 3.175s-2.282 1.162-3.775 1.162c-1.127 0-2.198-0.255-3.212-0.822z"></path>
<path fill="#020203" d="M137.015 11.467h-3.24v-2.013h8.763v2.013h-3.24v10.886h-2.282v-10.886z"></path>
<path fill="#020203" d="M146.229 9.454h2.282v12.898h-2.282v-12.898z"></path>
<path fill="#020203" d="M151.864 9.454h2.48l2.817 8.731 0.31 0.879 0.31-0.879 2.817-8.731h2.48l-4.368 12.898h-2.479l-4.368-12.898z"></path>
<path fill="#020203" d="M166.431 9.454h8.086v2.013h-5.805v3.402h5.325v2.041h-5.325v3.402h6.002v2.013h-8.284v-12.87z"></path>
</svg>
