<!-- Generated by IcoMoon.io -->
<svg version="1.1" xmlns="http://www.w3.org/2000/svg" width="30" height="32" viewBox="0 0 30 32">
<title>social-linkedin</title>
<path fill="#fff" d="M30.469 30.531v-0.001h0.008v-11.177c0-5.468-1.177-9.68-7.57-9.68-3.073 0-5.135 1.686-5.977 3.285h-0.089v-2.775h-6.061v20.347h6.311v-10.075c0-2.653 0.503-5.218 3.788-5.218 3.237 0 3.285 3.027 3.285 5.388v9.906h6.305z"></path>
<path fill="#fff" d="M0.503 10.184h6.319v20.347h-6.319v-20.347z"></path>
<path fill="#fff" d="M3.66 0.054c-2.020 0-3.66 1.639-3.66 3.66s1.639 3.694 3.66 3.694c2.020 0 3.66-1.674 3.66-3.694-0.001-2.020-1.641-3.66-3.66-3.66v0z"></path>
</svg>
