<!-- Generated by IcoMoon.io -->
<svg version="1.1" xmlns="http://www.w3.org/2000/svg" width="26" height="32" viewBox="0 0 26 32">
<title>social-yt</title>
<path fill="#fff" d="M15.934 2.98v6.765c0 0.584 0.046 1.013 0.137 1.288 0.149 0.424 0.487 0.635 1.013 0.635 0.572 0 1.162-0.354 1.768-1.064v0.944h1.563v-8.568h-1.562v6.541c-0.343 0.493-0.669 0.738-0.979 0.738-0.206 0-0.326-0.125-0.36-0.378-0.011-0.023-0.017-0.223-0.017-0.601v-6.301h-1.562z"></path>
<path fill="#fff" d="M12.363 11.668c0.79 0 1.396-0.292 1.82-0.875 0.321-0.423 0.481-1.099 0.481-2.026v-3.005c0-0.916-0.16-1.585-0.481-2.009-0.424-0.584-1.030-0.876-1.82-0.876-0.767 0-1.368 0.292-1.803 0.876-0.321 0.424-0.481 1.093-0.481 2.009v3.005c0 0.916 0.16 1.592 0.481 2.026 0.435 0.584 1.036 0.875 1.803 0.875zM11.624 5.452c0-0.79 0.246-1.184 0.738-1.184s0.738 0.395 0.738 1.184v3.606c0 0.802-0.246 1.202-0.738 1.202s-0.738-0.4-0.738-1.202v-3.606z"></path>
<path fill="#fff" d="M7.984 11.548v-4.653l2.078-6.851h-1.751l-1.167 4.516-1.22-4.516h-1.82c0.321 0.962 0.692 2.032 1.116 3.211 0.538 1.58 0.887 2.793 1.047 3.641v4.653l1.717 0z"></path>
<path fill="#fff" d="M24.012 14.244c-0.51-0.457-1.096-0.726-1.76-0.807-2.106-0.229-5.283-0.344-9.529-0.344s-7.418 0.115-9.512 0.344c-0.676 0.081-1.265 0.35-1.769 0.807-0.504 0.459-0.836 1.025-0.996 1.7-0.298 1.328-0.446 3.331-0.446 6.010 0 2.724 0.149 4.727 0.446 6.010 0.149 0.675 0.478 1.241 0.987 1.7s1.096 0.721 1.76 0.79c2.106 0.24 5.282 0.36 9.53 0.36s7.423-0.12 9.529-0.36c0.664-0.069 1.248-0.332 1.751-0.79s0.835-1.025 0.996-1.7c0.297-1.328 0.446-3.331 0.446-6.010 0-2.724-0.149-4.727-0.446-6.010-0.149-0.676-0.478-1.241-0.987-1.7zM7.263 17.678h-1.837v9.77h-1.717v-9.77h-1.803v-1.614h5.357v1.614h-0zM11.899 27.448h-1.528v-0.928c-0.618 0.698-1.202 1.048-1.751 1.048-0.527 0-0.858-0.212-0.996-0.635-0.092-0.275-0.137-0.692-0.137-1.254v-6.714h1.528v6.25c0 0.366 0.006 0.567 0.017 0.601 0.034 0.24 0.155 0.36 0.361 0.36 0.309 0 0.635-0.24 0.979-0.721v-6.49h1.528v8.483h-0zM17.737 24.907c0 0.836-0.051 1.408-0.155 1.717-0.195 0.629-0.601 0.944-1.219 0.944-0.549 0-1.082-0.315-1.597-0.944v0.824h-1.528v-11.384h1.528v3.726c0.492-0.618 1.024-0.927 1.597-0.927 0.618 0 1.024 0.32 1.219 0.961 0.103 0.298 0.155 0.864 0.155 1.7v3.382zM23.54 23.499h-3.073v1.494c0 0.79 0.263 1.184 0.79 1.184 0.378 0 0.607-0.206 0.687-0.618 0.023-0.115 0.034-0.464 0.034-1.048h1.562v0.223c0 0.561-0.012 0.893-0.035 0.996-0.034 0.309-0.154 0.618-0.36 0.927-0.412 0.606-1.030 0.91-1.854 0.91-0.79 0-1.408-0.292-1.855-0.876-0.332-0.423-0.498-1.087-0.498-1.991v-2.971c0-0.904 0.16-1.568 0.481-1.992 0.446-0.584 1.059-0.875 1.837-0.875 0.767 0 1.374 0.292 1.82 0.875 0.309 0.424 0.463 1.088 0.463 1.992v1.769h0z"></path>
<path fill="#fff" d="M21.239 20.253c-0.515 0-0.772 0.39-0.772 1.168v0.79h1.545v-0.79c-0-0.778-0.258-1.168-0.773-1.168z"></path>
<path fill="#fff" d="M15.539 20.253c-0.263 0-0.521 0.126-0.773 0.378v5.168c0.252 0.252 0.509 0.378 0.773 0.378 0.446 0 0.67-0.383 0.67-1.15v-3.623c-0-0.767-0.223-1.151-0.67-1.151z"></path>
</svg>
