<!-- Generated by IcoMoon.io -->
<svg version="1.1" xmlns="http://www.w3.org/2000/svg" width="30" height="32" viewBox="0 0 30 32">
<title>social-instagram</title>
<path fill="#fff" d="M30.447 9.014c-0.071-1.619-0.333-2.733-0.708-3.697-0.387-1.024-0.982-1.941-1.762-2.703-0.762-0.774-1.685-1.375-2.697-1.756-0.97-0.375-2.078-0.637-3.697-0.708-1.631-0.077-2.149-0.095-6.287-0.095s-4.656 0.018-6.281 0.089c-1.619 0.071-2.733 0.334-3.697 0.708-1.024 0.387-1.941 0.982-2.703 1.762-0.774 0.762-1.375 1.685-1.756 2.697-0.375 0.97-0.637 2.078-0.708 3.697-0.077 1.631-0.095 2.149-0.095 6.287s0.018 4.656 0.089 6.281c0.071 1.619 0.334 2.733 0.709 3.697 0.387 1.024 0.988 1.941 1.762 2.703 0.762 0.774 1.685 1.375 2.697 1.756 0.97 0.375 2.078 0.637 3.697 0.708 1.625 0.072 2.143 0.089 6.281 0.089s4.656-0.018 6.281-0.089c1.619-0.071 2.733-0.333 3.697-0.708 2.048-0.792 3.667-2.411 4.459-4.459 0.375-0.971 0.637-2.078 0.708-3.697 0.071-1.625 0.089-2.143 0.089-6.281s-0.006-4.656-0.077-6.281zM27.702 21.457c-0.066 1.488-0.316 2.292-0.524 2.828-0.512 1.328-1.566 2.381-2.894 2.894-0.536 0.208-1.345 0.458-2.828 0.524-1.607 0.072-2.090 0.089-6.156 0.089s-4.554-0.018-6.156-0.089c-1.488-0.065-2.292-0.315-2.828-0.524-0.661-0.244-1.262-0.631-1.75-1.137-0.506-0.494-0.893-1.090-1.137-1.75-0.208-0.536-0.458-1.346-0.524-2.828-0.072-1.607-0.089-2.090-0.089-6.156s0.018-4.554 0.089-6.156c0.065-1.488 0.315-2.292 0.524-2.828 0.244-0.661 0.631-1.262 1.143-1.75 0.494-0.506 1.089-0.893 1.75-1.137 0.536-0.208 1.346-0.458 2.828-0.524 1.607-0.071 2.090-0.089 6.156-0.089 4.072 0 4.555 0.018 6.156 0.089 1.488 0.066 2.292 0.316 2.828 0.524 0.661 0.244 1.262 0.631 1.75 1.137 0.506 0.494 0.893 1.090 1.137 1.75 0.208 0.536 0.458 1.345 0.524 2.828 0.071 1.607 0.089 2.090 0.089 6.156s-0.018 4.543-0.089 6.15z"></path>
<path fill="#fff" d="M15.295 7.466c-4.322 0-7.829 3.507-7.829 7.829s3.507 7.829 7.829 7.829c4.322 0 7.829-3.506 7.829-7.829s-3.507-7.829-7.829-7.829zM15.295 20.374c-2.804 0-5.078-2.274-5.078-5.078s2.274-5.078 5.078-5.078c2.804 0 5.078 2.274 5.078 5.078s-2.274 5.078-5.078 5.078z"></path>
<path fill="#fff" d="M25.261 7.157c0 1.009-0.818 1.828-1.828 1.828s-1.828-0.818-1.828-1.828c0-1.010 0.818-1.828 1.828-1.828s1.828 0.818 1.828 1.828z"></path>
</svg>
