<!-- Generated by IcoMoon.io -->
<svg version="1.1" xmlns="http://www.w3.org/2000/svg" width="27" height="32" viewBox="0 0 27 32">
<title>social-C</title>
<path fill="#fff" d="M21.060 21.653c-1.6 1.414-3.668 2.181-5.803 2.152-4.919 0-8.532-3.613-8.532-8.57s3.497-8.416 8.532-8.416c2.139-0.029 4.216 0.722 5.842 2.114l1.076 0.922 4.766-4.766-1.191-1.115c-2.883-2.575-6.627-3.974-10.492-3.92-8.839 0-15.257 6.38-15.257 15.142s6.572 15.334 15.257 15.334c3.902 0.052 7.678-1.376 10.569-3.997l1.153-1.076-4.842-4.765-1.076 0.961z"></path>
<path fill="#fff" d="M15.027 20.385c2.823 0 5.111-2.288 5.111-5.111s-2.288-5.111-5.111-5.111c-2.823 0-5.111 2.288-5.111 5.111s2.288 5.111 5.111 5.111z"></path>
</svg>
