<svg width="21" height="26" viewBox="0 0 21 26" fill="none" xmlns="http://www.w3.org/2000/svg">
<path d="M12.9465 2.42139V7.91767C12.9465 8.39234 12.9836 8.74093 13.058 8.96401C13.1789 9.30847 13.4533 9.4802 13.881 9.4802C14.3458 9.4802 14.8249 9.19257 15.3177 8.61542V9.38267H16.5874V2.42139H15.318V7.73637C15.0389 8.13689 14.7741 8.33632 14.5228 8.33632C14.3554 8.33632 14.2577 8.23438 14.2299 8.02948C14.2206 8.01108 14.2159 7.84791 14.2159 7.54134V2.42139H12.9465Z" fill="white"/>
<path d="M10.0446 9.48026C10.6863 9.48026 11.1792 9.24317 11.5233 8.76904C11.7838 8.42508 11.914 7.87598 11.914 7.12275V4.68143C11.914 3.93753 11.7838 3.39364 11.5233 3.04941C11.1792 2.57474 10.6863 2.33765 10.0446 2.33765C9.42132 2.33765 8.93313 2.57474 8.57961 3.04941C8.31918 3.39391 8.18896 3.9378 8.18896 4.68143V7.12275C8.18896 7.86718 8.31918 8.41605 8.57961 8.76904C8.93287 9.24317 9.42127 9.48026 10.0446 9.48026ZM9.44461 4.43011C9.44461 3.78864 9.64463 3.46784 10.0446 3.46784C10.4443 3.46784 10.6445 3.78868 10.6445 4.43011V7.35983C10.6445 8.01118 10.4443 8.33643 10.0446 8.33643C9.64458 8.33643 9.44461 8.01118 9.44461 7.35983V4.43011Z" fill="white"/>
<path d="M6.4873 9.38274V5.60223L8.17534 0.0356445H6.75236L5.80382 3.70488L4.81296 0.0356445H3.33423C3.59466 0.817206 3.89683 1.68692 4.24102 2.64426C4.67808 3.92824 4.96158 4.91385 5.09206 5.60227V9.38251H6.48726V9.38274H6.4873Z" fill="white"/>
<path d="M19.51 11.573C19.096 11.2013 18.6194 10.9829 18.0802 10.9173C16.3688 10.7316 13.7879 10.6382 10.3377 10.6382C6.88713 10.6382 4.31092 10.7313 2.60888 10.9173C2.06001 10.9827 1.58121 11.2013 1.17189 11.573C0.762573 11.9458 0.492851 12.4056 0.362636 12.9545C0.120609 14.0335 0 15.6606 0 17.8373C0 20.0508 0.120879 21.6782 0.362636 22.7202C0.48347 23.2685 0.750768 23.7289 1.16475 24.1011C1.57847 24.4733 2.05507 24.6871 2.59456 24.7431C4.30572 24.9381 6.88654 25.0357 10.3374 25.0357C13.7879 25.0357 16.3688 24.9381 18.0799 24.7431C18.6192 24.6871 19.0936 24.4733 19.5029 24.1011C19.9119 23.7289 20.1817 23.2685 20.3122 22.7202C20.5539 21.6411 20.6748 20.0135 20.6748 17.8373C20.6748 15.6237 20.5539 13.9964 20.3122 12.9545C20.191 12.4056 19.9237 11.9458 19.51 11.573ZM5.90115 14.3632H4.40842V22.3013H3.01344V14.3632H1.54876V13.052H5.90147V14.3632H5.90115ZM9.66765 22.3013H8.42596V21.5475C7.92378 22.1148 7.44942 22.3988 7.00298 22.3988C6.57499 22.3988 6.30549 22.2266 6.19372 21.8826C6.11926 21.6593 6.08218 21.3204 6.08218 20.864V15.4092H7.32387V20.4877C7.32387 20.7852 7.32854 20.9481 7.33788 20.9759C7.36588 21.1709 7.46342 21.2684 7.63098 21.2684C7.88208 21.2684 8.14718 21.0734 8.42628 20.6825V15.4092H9.66792V22.3013H9.66765ZM14.411 20.2366C14.411 20.9157 14.3692 21.3805 14.2854 21.6316C14.1272 22.1428 13.7972 22.3988 13.2948 22.3988C12.8485 22.3988 12.416 22.1428 11.9974 21.6316V22.3013H10.7557V13.052H11.9974V16.0792C12.3971 15.5773 12.8298 15.326 13.2948 15.326C13.797 15.326 14.1272 15.5864 14.2854 16.1069C14.3692 16.349 14.411 16.8093 14.411 17.4884V20.2366ZM19.1263 19.0927H16.6292V20.3064C16.6292 20.9483 16.8429 21.2686 17.2709 21.2686C17.5777 21.2686 17.7637 21.1014 17.8288 20.7668C17.8472 20.6736 17.8568 20.3901 17.8568 19.9155H19.1263V20.097C19.1263 20.553 19.1169 20.8223 19.0982 20.9063C19.0702 21.1577 18.9727 21.4082 18.8054 21.6595C18.4706 22.1521 17.9684 22.3991 17.2987 22.3991C16.657 22.3991 16.1545 22.162 15.7919 21.6873C15.5222 21.3434 15.3873 20.8044 15.3873 20.0693V17.6557C15.3873 16.9212 15.5175 16.3817 15.7779 16.0372C16.1405 15.563 16.638 15.3259 17.2707 15.3259C17.8937 15.3259 18.3868 15.563 18.7494 16.0372C19.0005 16.3817 19.126 16.9211 19.126 17.6557V19.0927H19.1263Z" fill="white"/>
<path d="M17.2568 16.4556C16.8382 16.4556 16.6292 16.7721 16.6292 17.4044V18.0465H17.8848V17.4044C17.8845 16.7723 17.6755 16.4556 17.2568 16.4556Z" fill="white"/>
<path d="M12.6254 16.4556C12.4114 16.4556 12.202 16.558 11.9977 16.763V20.9618C12.2021 21.1667 12.4114 21.2686 12.6254 21.2686C12.988 21.2686 13.1696 20.9574 13.1696 20.3341V17.3907C13.1693 16.7673 12.988 16.4556 12.6254 16.4556Z" fill="white"/>
</svg>
